<svg width="15" height="16" viewBox="0 0 15 16" fill="none" xmlns="http://www.w3.org/2000/svg">
<path d="M13.1858 12.5082C7.0775 15.4153 3.28663 12.983 0.859966 11.5057C0.709806 11.4126 0.454585 11.5275 0.676024 11.7819C1.48447 12.7621 4.1339 15.1248 7.59218 15.1248C11.0528 15.1248 13.1116 13.2365 13.3692 12.9071C13.625 12.5805 13.4443 12.4003 13.1857 12.5082H13.1858ZM14.9013 11.5608C14.7373 11.3472 13.9039 11.3074 13.3794 11.3718C12.8541 11.4344 12.0656 11.7554 12.1341 11.9482C12.1693 12.0204 12.2411 11.988 12.602 11.9556C12.9638 11.9195 13.9775 11.7915 14.1887 12.0677C14.401 12.3457 13.8654 13.6702 13.7676 13.8838C13.6731 14.0974 13.8037 14.1524 13.9812 14.0102C14.1563 13.868 14.4732 13.4997 14.6859 12.9785C14.8971 12.4545 15.0259 11.7235 14.9012 11.5608H14.9013Z" fill="#787878"/>
<path fill-rule="evenodd" clip-rule="evenodd" d="M9.0786 6.5761C9.0786 7.33887 9.09787 7.97497 8.71234 8.65235C8.40116 9.20313 7.90825 9.54182 7.35752 9.54182C6.60573 9.54182 6.1679 8.96904 6.1679 8.12368C6.1679 6.45491 7.66313 6.15203 9.0786 6.15203V6.5761ZM11.053 11.3483C10.9235 11.4639 10.7363 11.4722 10.5904 11.3951C9.9405 10.8554 9.82481 10.6048 9.46685 10.0898C8.39292 11.1858 7.63289 11.5135 6.23953 11.5135C4.59281 11.5135 3.30957 10.4973 3.30957 8.46237C3.30957 6.87352 4.17153 5.79129 5.39684 5.26262C6.45981 4.79443 7.94406 4.71184 9.0786 4.58246V4.32909C9.0786 3.86369 9.11435 3.31297 8.84177 2.91095C8.60217 2.55021 8.14507 2.4015 7.743 2.4015C6.99678 2.4015 6.33037 2.78424 6.1679 3.5773C6.13482 3.75358 6.00544 3.92708 5.82922 3.93532L3.92914 3.73158C3.76946 3.69571 3.59323 3.56633 3.63729 3.32121C4.07512 1.01917 6.15409 0.325195 8.01557 0.325195C8.96837 0.325195 10.213 0.578559 10.9648 1.30005C11.9176 2.18946 11.8267 3.3763 11.8267 4.66778V7.71888C11.8267 8.63587 12.2067 9.03788 12.5647 9.53358C12.6913 9.7098 12.7189 9.9219 12.5592 10.054C12.1599 10.3872 11.4494 11.0068 11.0584 11.3538L11.0529 11.3483" fill="#787878"/>
<path d="M13.1858 12.5082C7.0775 15.4153 3.28663 12.983 0.859966 11.5057C0.709806 11.4126 0.454585 11.5275 0.676024 11.7819C1.48447 12.7621 4.1339 15.1248 7.59218 15.1248C11.0528 15.1248 13.1116 13.2365 13.3692 12.9071C13.625 12.5805 13.4443 12.4003 13.1857 12.5082H13.1858ZM14.9013 11.5608C14.7373 11.3472 13.9039 11.3074 13.3794 11.3718C12.8541 11.4344 12.0656 11.7554 12.1341 11.9482C12.1693 12.0204 12.2411 11.988 12.602 11.9556C12.9638 11.9195 13.9775 11.7915 14.1887 12.0677C14.401 12.3457 13.8654 13.6702 13.7676 13.8838C13.6731 14.0974 13.8037 14.1524 13.9812 14.0102C14.1563 13.868 14.4732 13.4997 14.6859 12.9785C14.8971 12.4545 15.0259 11.7235 14.9012 11.5608H14.9013Z" fill="#787878"/>
<path fill-rule="evenodd" clip-rule="evenodd" d="M9.0786 6.5761C9.0786 7.33887 9.09787 7.97497 8.71234 8.65235C8.40116 9.20313 7.90825 9.54182 7.35752 9.54182C6.60573 9.54182 6.1679 8.96904 6.1679 8.12368C6.1679 6.45491 7.66313 6.15203 9.0786 6.15203V6.5761ZM11.053 11.3483C10.9235 11.4639 10.7363 11.4722 10.5904 11.3951C9.9405 10.8554 9.82481 10.6048 9.46685 10.0898C8.39292 11.1858 7.63289 11.5135 6.23953 11.5135C4.59281 11.5135 3.30957 10.4973 3.30957 8.46237C3.30957 6.87352 4.17153 5.79129 5.39684 5.26262C6.45981 4.79443 7.94406 4.71184 9.0786 4.58246V4.32909C9.0786 3.86369 9.11435 3.31297 8.84177 2.91095C8.60217 2.55021 8.14507 2.4015 7.743 2.4015C6.99678 2.4015 6.33037 2.78424 6.1679 3.5773C6.13482 3.75358 6.00544 3.92708 5.82922 3.93532L3.92914 3.73158C3.76946 3.69571 3.59323 3.56633 3.63729 3.32121C4.07512 1.01917 6.15409 0.325195 8.01557 0.325195C8.96837 0.325195 10.213 0.578559 10.9648 1.30005C11.9176 2.18946 11.8267 3.3763 11.8267 4.66778V7.71888C11.8267 8.63587 12.2067 9.03788 12.5647 9.53358C12.6913 9.7098 12.7189 9.9219 12.5592 10.054C12.1599 10.3872 11.4494 11.0068 11.0584 11.3538L11.0529 11.3483" fill="#787878"/>
</svg>
