<svg width="13" height="16" viewBox="0 0 13 16" fill="none" xmlns="http://www.w3.org/2000/svg">
<path d="M1.25568 10.7591H1.2925C1.77601 10.7591 2.1678 10.361 2.1678 9.87599V6.03466C2.1678 5.55042 1.77284 5.15234 1.2925 5.15234H1.25568C0.772161 5.15234 0.380371 5.55047 0.380371 6.03466V9.87599C0.380324 10.361 0.772161 10.7591 1.25568 10.7591Z" fill="#787878"/>
<path d="M2.5874 11.3565C2.5874 11.8044 2.94866 12.1654 3.39298 12.1654H4.25262V14.2421C4.25262 14.7294 4.64446 15.1245 5.12872 15.1245H5.16475C5.64901 15.1245 6.04085 14.7263 6.04085 14.2421V12.1654H7.24371V14.2421C7.24371 14.7294 7.63867 15.1245 8.11907 15.1245H8.15589C8.63935 15.1245 9.03124 14.7263 9.03124 14.2421V12.1654H9.89167C10.3321 12.1654 10.6965 11.8044 10.6965 11.3565V5.29395H2.5874V11.3565Z" fill="#787878"/>
<path d="M10.7118 4.92665C10.7173 4.84608 10.7236 4.7663 10.7236 4.68573C10.7236 3.37132 9.89134 2.22356 8.66023 1.61533L9.34355 0.551334C9.38587 0.486546 9.36784 0.394133 9.30044 0.350675C9.23304 0.304069 9.14449 0.323049 9.10138 0.394133L8.39139 1.4921C7.86164 1.2733 7.26766 1.15007 6.64311 1.15007C6.01539 1.15007 5.42221 1.2733 4.89246 1.4921L4.18485 0.394133C4.14253 0.323049 4.05085 0.304069 3.98345 0.350675C3.91606 0.394133 3.89723 0.486546 3.94034 0.551334L4.62287 1.61533C3.39255 2.22356 2.55957 3.37127 2.55957 4.68573C2.55957 4.7663 2.56582 4.84608 2.57211 4.92665H10.7118ZM8.52861 2.72988C8.74645 2.72988 8.92044 2.90207 8.92044 3.12166C8.92044 3.34045 8.74645 3.51659 8.52861 3.51659C8.31155 3.51659 8.13682 3.34045 8.13682 3.12166C8.13682 2.90207 8.3115 2.72988 8.52861 2.72988ZM4.75459 2.72988C4.97164 2.72988 5.14643 2.90207 5.14643 3.12166C5.14643 3.34045 4.97164 3.51659 4.75459 3.51659C4.53753 3.51659 4.3628 3.34045 4.3628 3.12166C4.3628 2.90207 4.53753 2.72988 4.75459 2.72988Z" fill="#787878"/>
<path d="M11.9905 10.7591H12.0274C12.5109 10.7591 12.9027 10.361 12.9027 9.87599V6.03466C12.9027 5.55042 12.5085 5.15234 12.0274 5.15234H11.9905C11.507 5.15234 11.1152 5.55047 11.1152 6.03466V9.87599C11.1153 10.361 11.5102 10.7591 11.9905 10.7591Z" fill="#787878"/>
</svg>
