<svg width="13" height="16" viewBox="0 0 13 16" fill="none" xmlns="http://www.w3.org/2000/svg">
<path d="M10.8435 14.5295C10.0558 15.3085 9.18671 15.1871 8.35831 14.8198C7.4776 14.4451 6.67246 14.4214 5.74233 14.8198C4.58403 15.3292 3.96928 15.1811 3.27168 14.5295C-0.666819 10.3973 -0.0854904 4.10286 4.39074 3.86589C5.47637 3.92513 6.23646 4.47757 6.87592 4.52348C7.8264 4.3265 8.73618 3.76222 9.7535 3.83627C10.9757 3.93698 11.8899 4.42869 12.5003 5.31288C9.98603 6.85318 10.5819 10.23 12.8912 11.1779C12.4291 12.4145 11.8361 13.6364 10.842 14.5398L10.8435 14.5295ZM6.78872 3.82146C6.67101 1.98495 8.13159 0.474277 9.81164 0.326172C10.0427 2.44408 7.92232 4.02881 6.78872 3.82146Z" fill="#787878"/>
</svg>
