<svg width="19" height="15" viewBox="0 0 19 15" fill="none" xmlns="http://www.w3.org/2000/svg">
<path d="M10.0122 6.89832C10.0373 6.34574 10.0487 5.61049 10.1035 4.8798C10.1835 3.8066 10.3364 2.74253 10.6949 1.71957C10.7886 1.45241 10.9187 1.19667 11.0397 0.938647C11.058 0.902112 11.1197 0.854161 11.1539 0.861011C11.638 0.94093 12.1312 0.998015 12.5651 1.24234C13.4738 1.75154 13.9465 2.52561 13.9374 3.58054C13.9305 4.3432 13.7022 5.05334 13.4145 5.74977C12.9144 6.95769 12.2728 8.09254 11.5832 9.19999C11.2019 9.81423 10.7977 10.4125 10.4004 11.0153C10.3776 11.0518 10.3296 11.0724 10.2931 11.1021C10.2725 11.0587 10.2383 11.0176 10.236 10.9742C10.1743 10.1682 10.1104 9.35983 10.0624 8.55151C10.0328 8.06058 10.0305 7.56964 10.0122 6.89832Z" fill="#787878"/>
<path d="M9.51269 7.08981C9.47844 7.88672 9.45104 8.68591 9.40765 9.48282C9.38025 9.98288 9.32317 10.4829 9.2775 10.9807C9.27293 11.0195 9.24553 11.0584 9.22726 11.0972C9.19301 11.0721 9.14734 11.0561 9.12679 11.0241C8.70893 10.3848 8.28193 9.74998 7.88006 9.10149C7.2544 8.09451 6.67442 7.05785 6.20176 5.96866C5.93231 5.34758 5.71539 4.71051 5.60807 4.03462C5.40713 2.75592 6.05334 1.56627 7.22929 1.12329C7.58778 0.988565 7.98053 0.94518 8.35729 0.856128C8.43949 0.837861 8.46461 0.892662 8.49429 0.94518C8.70208 1.30596 8.84137 1.69642 8.95325 2.09601C9.16789 2.84269 9.30947 3.60534 9.36655 4.37942C9.4282 5.22884 9.45789 6.07827 9.50127 6.92998C9.50355 6.98249 9.50127 7.0373 9.50127 7.08981C9.50584 7.08981 9.5104 7.08981 9.51269 7.08981Z" fill="#787878"/>
<path d="M16.0883 3.26465C16.5473 3.72133 16.9309 4.21454 17.2118 4.78311C17.4469 5.25577 17.5908 5.75127 17.5611 6.28559C17.52 6.99573 17.2049 7.57343 16.7003 8.05522C15.9445 8.77906 15.0791 9.35448 14.1794 9.87281C13.1953 10.4391 12.1883 10.9688 11.1904 11.5123C11.147 11.5351 11.0877 11.5328 11.0352 11.5397C11.042 11.4872 11.0352 11.4278 11.058 11.3821C11.7727 9.83399 12.597 8.34522 13.5081 6.90439C14.273 5.69419 15.0859 4.52052 15.9764 3.39937C16.013 3.35598 16.0449 3.31717 16.0883 3.26465Z" fill="#787878"/>
<path d="M3.44733 3.26758C3.68252 3.57355 3.91543 3.8704 4.1392 4.17181C5.72845 6.32049 7.12589 8.58562 8.28129 10.9969C8.35208 11.1453 8.42286 11.2914 8.48908 11.4422C8.50278 11.4718 8.48908 11.5129 8.48908 11.5472C8.45483 11.5449 8.41373 11.5563 8.38404 11.5403C6.69204 10.6795 5.01374 9.79354 3.49985 8.63357C3.15734 8.37098 2.82168 8.08327 2.54995 7.75218C1.88777 6.94614 1.7873 6.03734 2.18461 5.07832C2.46318 4.40471 2.89246 3.82929 3.39709 3.31096C3.40623 3.29726 3.41765 3.29041 3.44733 3.26758Z" fill="#787878"/>
<path d="M0.805622 7.91406C1.26002 8.16295 1.69843 8.39814 2.13456 8.6379C3.87908 9.59921 5.61447 10.5765 7.3019 11.6383C7.53024 11.7821 7.7563 11.9306 7.98007 12.0813C8.01432 12.1041 8.03259 12.1543 8.05999 12.1909C8.02117 12.2069 7.98007 12.2343 7.94125 12.2343C6.5872 12.2388 5.23085 12.2639 3.87908 12.2388C2.06834 12.2046 0.638934 10.7112 0.654918 8.90734C0.657201 8.6927 0.691452 8.47578 0.721137 8.26114C0.732554 8.15154 0.771371 8.04193 0.805622 7.91406Z" fill="#787878"/>
<path d="M18.7349 7.89746C18.7805 8.1532 18.8376 8.38839 18.8605 8.62815C18.9952 10.0142 18.2142 11.3659 16.9515 11.9368C16.5405 12.124 16.1067 12.2291 15.65 12.2291C14.417 12.2314 13.1839 12.2359 11.9509 12.2382C11.8253 12.2382 11.6997 12.2359 11.5741 12.2291C11.5376 12.2268 11.501 12.204 11.4668 12.1903C11.4896 12.1537 11.5033 12.1058 11.5353 12.0852C11.9166 11.8363 12.298 11.5852 12.6861 11.3454C14.6339 10.1443 16.6341 9.03003 18.6458 7.93856C18.6618 7.93171 18.6801 7.92258 18.7349 7.89746Z" fill="#787878"/>
<path d="M17.2162 12.8725C17.1066 13.0346 17.0039 13.2013 16.8874 13.3566C16.5928 13.7562 16.2481 14.101 15.8005 14.3293C15.2502 14.6102 14.6953 14.6421 14.1268 14.3659C13.4372 14.0302 12.7978 13.6146 12.1653 13.1876C11.9827 13.0643 11.8023 12.9387 11.6242 12.8086C11.5922 12.7857 11.5785 12.7401 11.5557 12.7035C11.5945 12.6876 11.6333 12.6602 11.6721 12.6602C12.4348 12.683 13.1997 12.7081 13.9624 12.7355C14.8255 12.7652 15.6863 12.7972 16.5495 12.8268C16.7641 12.8337 16.9787 12.8268 17.1957 12.8268C17.2025 12.8428 17.2094 12.8588 17.2162 12.8725Z" fill="#787878"/>
<path d="M2.30127 12.8487C2.66433 12.8373 3.00456 12.8259 3.34478 12.8145C4.53444 12.7733 5.72409 12.73 6.91374 12.6866C7.22885 12.6752 7.54396 12.666 7.85907 12.6592C7.8956 12.6592 7.93214 12.6843 7.96867 12.698C7.94812 12.7322 7.9367 12.7756 7.9093 12.7962C7.1261 13.3465 6.33604 13.8876 5.47976 14.3238C4.76963 14.6868 4.10059 14.6069 3.45895 14.1662C2.96802 13.8306 2.60953 13.3807 2.30127 12.8487Z" fill="#787878"/>
</svg>
