<svg width="14" height="16" viewBox="0 0 14 16" fill="none" xmlns="http://www.w3.org/2000/svg">
<path d="M3.98678 6.36006C3.75363 6.90407 2.12158 8.61384 2.27702 10.3236C2.89875 17.4735 5.07481 12.6551 8.33891 14.4426C8.33891 14.4426 14.1676 11.1785 9.50466 5.89376C8.18348 4.02856 9.34922 2.55195 8.49434 1.30848C7.63946 0.0650162 6.16284 -0.0127004 5.07481 1.15305C3.98678 2.3188 5.54111 4.02856 3.98678 6.36006Z" fill="#787878"/>
<path d="M9.73792 9.93494C9.73792 9.93494 10.4374 8.53605 9.11619 7.52573C10.3597 8.84691 9.58249 10.0127 9.58249 10.0127H9.34934C9.27162 7.29258 8.57217 8.7692 7.56186 3.95077C8.72761 2.62959 6.47383 1.46384 6.47383 3.6399H5.77438C5.85209 1.7747 4.22005 2.7073 5.15264 4.02848C5.07493 6.904 3.36516 8.06975 3.36516 10.0904C2.82115 8.69148 3.83146 7.60345 3.83146 7.60345C3.83146 7.60345 2.43256 8.7692 3.28745 10.479C4.14233 12.1887 5.69666 11.8001 4.60863 12.5773C6.31839 13.7431 8.96076 12.9659 8.88304 10.479C8.96076 9.85723 10.5928 10.0904 10.7482 10.2458C10.9037 10.4012 10.5151 9.93494 9.73792 9.93494ZM5.38579 3.87305C4.84178 3.71762 4.99721 3.01817 5.23036 3.01817C5.46351 3.01817 5.85209 3.56219 5.38579 3.87305ZM6.86241 3.95077C6.47383 3.40675 6.78469 2.86274 7.17327 2.94045C7.56186 3.01817 7.56186 3.95077 6.86241 3.95077Z" fill="#EDEDED"/>
<path d="M3.28735 10.7114L4.91939 13.0429C5.77428 13.587 5.30798 15.763 2.97648 14.675C1.6553 14.2864 0.567268 14.3641 0.411835 13.6647C0.256401 12.9652 0.722701 12.8875 0.644984 12.5766C0.334118 10.8669 1.73302 11.7218 2.1216 10.8669C2.51018 10.012 2.51018 9.62341 3.28735 10.7114ZM11.9916 11.7995C11.6807 11.3332 11.9916 10.4783 10.9036 10.556C10.4373 11.4886 9.11609 12.4212 9.03837 10.556C8.26121 10.556 8.80522 12.4212 8.49436 13.2761C7.79491 15.3744 9.81554 15.5299 10.6704 14.5196L12.691 13.1207C12.8465 12.8875 13.0796 12.6544 11.9916 11.7995ZM4.84168 4.64956C4.60853 4.18326 5.69656 3.56152 6.08514 3.56152C6.47373 3.56152 7.01774 3.87239 7.56176 4.02782C8.10577 4.18326 7.87262 4.72727 7.71719 4.80499C7.56176 4.8827 6.70688 5.58215 6.08514 5.58215C5.46341 5.58215 5.30798 4.96042 4.84168 4.64956Z" fill="#D0D0D0" stroke="#787878" stroke-width="0.5"/>
<path d="M4.8418 4.57202C5.46353 5.03832 6.16298 5.4269 7.56188 4.33887L4.8418 4.57202Z" fill="#D0D0D0"/>
<path d="M4.8418 4.57202C5.46353 5.03832 6.16298 5.4269 7.56188 4.33887" stroke="#787878" stroke-width="0.5"/>
<path d="M5.69682 4.106C5.54138 4.106 5.77453 3.95057 5.85225 4.02828L5.69682 4.106ZM6.39627 4.106C6.47398 4.02828 6.31855 3.95057 6.16312 4.02828L6.39627 4.106Z" fill="#787878"/>
</svg>
