<svg width="30" height="30" viewBox="0 0 30 30" fill="none" xmlns="http://www.w3.org/2000/svg">
<circle cx="15" cy="15" r="15" fill="#474747"/>
<path d="M13.3338 19.6527L12.9979 19.2846L9.70289 15.6738L9.70274 15.6737C9.40823 15.3506 9.43794 14.8518 9.76985 14.5648L9.77023 14.5645C10.0912 14.2874 10.5803 14.3118 10.8708 14.6298L10.8711 14.6301L13.4405 17.4472L20.2346 11.284L13.3338 19.6527ZM13.3338 19.6527L13.7031 19.3179M13.3338 19.6527L13.7031 19.3179M13.7031 19.3179L21.2983 12.4311L21.2983 12.4311L21.3018 12.4278C21.6165 12.137 21.6431 11.6399 21.3363 11.3205L21.3364 11.3205M13.7031 19.3179L21.3364 11.3205M21.3364 11.3205L21.3335 11.3176M21.3364 11.3205L21.3335 11.3176M21.3335 11.3176C21.0404 11.0175 20.5536 10.9944 20.235 11.2836L21.3335 11.3176Z" fill="white" stroke="white"/>
</svg>
